<?xml version="1.0" encoding="UTF-8"?>
<!DOCTYPE svg PUBLIC "-//W3C//DTD SVG 1.1//EN" "http://www.w3.org/Graphics/SVG/1.1/DTD/svg11.dtd">
<svg xmlns="http://www.w3.org/2000/svg" version="1.1" width="820px" height="680px" style="shape-rendering:geometricPrecision; text-rendering:geometricPrecision; image-rendering:optimizeQuality; fill-rule:evenodd; clip-rule:evenodd" xmlns:xlink="http://www.w3.org/1999/xlink">
<g><path style="opacity:1" fill="#f5f5f5" d="M -0.5,-0.5 C 272.833,-0.5 546.167,-0.5 819.5,-0.5C 819.5,226.167 819.5,452.833 819.5,679.5C 546.167,679.5 272.833,679.5 -0.5,679.5C -0.5,452.833 -0.5,226.167 -0.5,-0.5 Z"/></g>
<g><path style="opacity:1" fill="#f9edda" d="M 531.5,46.5 C 527.805,40.14 522.472,38.14 515.5,40.5C 517.048,39.2057 519.048,38.5391 521.5,38.5C 527.511,37.8457 530.844,40.5124 531.5,46.5 Z"/></g>
<g><path style="opacity:1" fill="#c68c33" d="M 532.5,53.5 C 533.434,54.5676 533.768,55.901 533.5,57.5C 534.02,64.3544 535.187,71.0211 537,77.5C 537.852,78.5707 538.685,79.5707 539.5,80.5C 540.319,82.7722 540.985,85.1055 541.5,87.5C 541.41,90.1522 542.076,92.4855 543.5,94.5C 543.5,95.1667 543.833,95.5 544.5,95.5C 545.551,100.607 547.885,104.941 551.5,108.5C 553.809,110.987 556.476,112.987 559.5,114.5C 561.807,116.047 564.473,116.713 567.5,116.5C 575.493,114.614 583.159,111.948 590.5,108.5C 590.5,107.5 590.5,106.5 590.5,105.5C 592.55,103.453 594.883,101.786 597.5,100.5C 602.335,98.9839 606.335,96.3172 609.5,92.5C 613.844,91.6573 617.177,89.324 619.5,85.5C 620.899,84.1103 622.566,83.1103 624.5,82.5C 628.588,80.8198 632.921,80.1532 637.5,80.5C 637.833,80.5 638.167,80.5 638.5,80.5C 639.943,82.6207 640.943,84.954 641.5,87.5C 640.905,90.1401 640.572,92.8067 640.5,95.5C 638.167,101.5 635.833,107.5 633.5,113.5C 631.226,118.383 629.226,123.383 627.5,128.5C 626.687,130.261 625.687,131.928 624.5,133.5C 622.198,136.771 620.364,140.437 619,144.5C 618.333,148.833 618.333,153.167 619,157.5C 619.74,159.319 620.907,160.652 622.5,161.5C 623.473,163.139 624.806,164.473 626.5,165.5C 626.973,166.906 627.973,167.573 629.5,167.5C 632.784,169.164 636.117,170.831 639.5,172.5C 640.263,173.268 641.263,173.768 642.5,174C 662.5,174.333 682.5,174.667 702.5,175C 705.102,175.935 706.602,177.768 707,180.5C 707.495,183.531 707.329,186.531 706.5,189.5C 705.243,190.818 703.909,192.151 702.5,193.5C 686.77,202.357 671.436,211.69 656.5,221.5C 654.251,222.08 652.585,223.413 651.5,225.5C 650.272,226.306 649.272,227.306 648.5,228.5C 645.395,231.227 644.062,234.727 644.5,239C 644.187,243.859 645.853,247.692 649.5,250.5C 650.167,250.833 650.833,251.167 651.5,251.5C 651.833,252.5 652.5,253.167 653.5,253.5C 655.963,257.3 659.296,259.967 663.5,261.5C 670.833,267.167 678.167,272.833 685.5,278.5C 685.937,280.074 686.937,281.241 688.5,282C 691.059,283.777 693.726,285.277 696.5,286.5C 698.077,288.584 699.91,290.584 702,292.5C 702.498,295.817 702.665,299.15 702.5,302.5C 702.167,303.5 701.5,304.167 700.5,304.5C 697.934,304.344 695.434,304.678 693,305.5C 677.159,304.646 661.325,303.646 645.5,302.5C 640.167,302.667 634.833,302.833 629.5,303C 628.944,303.383 628.611,303.883 628.5,304.5C 627.432,305.434 626.099,305.768 624.5,305.5C 621.285,298.955 616.952,293.289 611.5,288.5C 608.899,284.229 605.566,280.563 601.5,277.5C 600.5,276.167 599.5,274.833 598.5,273.5C 597.415,271.413 595.749,270.08 593.5,269.5C 593.5,267.833 593.5,266.167 593.5,264.5C 593.833,262.5 594.167,260.5 594.5,258.5C 595.167,257.833 595.833,257.167 596.5,256.5C 597.117,256.389 597.617,256.056 598,255.5C 599.843,247.443 600.676,239.277 600.5,231C 600.491,226.443 599.825,222.276 598.5,218.5C 597.869,215.298 596.869,212.298 595.5,209.5C 594.801,204.728 593.134,200.395 590.5,196.5C 581.883,178.216 568.549,164.55 550.5,155.5C 550.047,154.542 549.381,153.708 548.5,153C 543.753,150.983 538.753,149.817 533.5,149.5C 532.833,149.5 532.167,149.5 531.5,149.5C 529.898,147.926 527.898,147.259 525.5,147.5C 517.493,147.334 509.493,147.5 501.5,148C 498.322,148.66 495.322,149.493 492.5,150.5C 483.726,152.302 475.559,155.636 468,160.5C 464.372,158.606 460.872,156.606 457.5,154.5C 456.652,152.907 455.319,151.74 453.5,151C 446.257,148.085 438.923,145.418 431.5,143C 425.938,141.423 420.272,140.59 414.5,140.5C 414.784,138.585 414.451,136.919 413.5,135.5C 412.072,129.216 410.072,123.216 407.5,117.5C 406.479,112.751 405.146,108.084 403.5,103.5C 402.538,99.6052 401.204,95.9385 399.5,92.5C 399.5,92.1667 399.5,91.8333 399.5,91.5C 398.094,87.6128 397.094,83.6128 396.5,79.5C 396.511,77.9549 396.844,76.6216 397.5,75.5C 399.296,74.2073 400.963,72.7073 402.5,71C 403.5,70.8333 404.5,70.6667 405.5,70.5C 408.605,71.2211 411.605,72.2211 414.5,73.5C 427.168,82.844 439.501,92.6773 451.5,103C 455.407,105.759 459.407,108.259 463.5,110.5C 463.611,111.117 463.944,111.617 464.5,112C 469.167,112.667 473.833,112.667 478.5,112C 480.859,110.758 482.859,109.258 484.5,107.5C 488.602,105.734 491.269,102.734 492.5,98.5C 494.468,93.9743 496.135,89.3076 497.5,84.5C 501.601,80.0992 503.601,74.7659 503.5,68.5C 503.5,68.1667 503.5,67.8333 503.5,67.5C 505.897,64.691 507.23,61.3576 507.5,57.5C 507.5,57.1667 507.5,56.8333 507.5,56.5C 509.081,54.3263 510.581,51.9929 512,49.5C 512.494,47.8659 512.66,46.1992 512.5,44.5C 512.5,42.5 513.5,41.5 515.5,41.5C 519.346,40.2048 523.013,40.7048 526.5,43C 528.764,46.4105 530.764,49.9105 532.5,53.5 Z"/></g>
<g><path style="opacity:1" fill="#c59857" d="M 531.5,46.5 C 531.993,48.8056 532.326,51.139 532.5,53.5C 530.764,49.9105 528.764,46.4105 526.5,43C 523.013,40.7048 519.346,40.2048 515.5,41.5C 515.5,41.1667 515.5,40.8333 515.5,40.5C 522.472,38.14 527.805,40.14 531.5,46.5 Z"/></g>
<g><path style="opacity:1" fill="#c69a5b" d="M 512.5,44.5 C 512.66,46.1992 512.494,47.8659 512,49.5C 510.581,51.9929 509.081,54.3263 507.5,56.5C 508.406,52.0986 510.072,48.0986 512.5,44.5 Z"/></g>
<g><path style="opacity:1" fill="#caa166" d="M 507.5,57.5 C 507.23,61.3576 505.897,64.691 503.5,67.5C 504.267,63.8512 505.6,60.5178 507.5,57.5 Z"/></g>
<g><path style="opacity:1" fill="#c59856" d="M 533.5,57.5 C 534.729,61.2151 536.062,64.8818 537.5,68.5C 538.167,72.5 538.833,76.5 539.5,80.5C 538.685,79.5707 537.852,78.5707 537,77.5C 535.187,71.0211 534.02,64.3544 533.5,57.5 Z"/></g>
<g><path style="opacity:1" fill="#c3995a" d="M 414.5,73.5 C 411.605,72.2211 408.605,71.2211 405.5,70.5C 404.5,70.6667 403.5,70.8333 402.5,71C 400.963,72.7073 399.296,74.2073 397.5,75.5C 397.557,74.391 397.89,73.391 398.5,72.5C 404.08,68.3626 409.413,68.6959 414.5,73.5 Z"/></g>
<g><path style="opacity:1" fill="#faeedd" d="M 639.5,80.5 C 639.167,80.5 638.833,80.5 638.5,80.5C 638.167,80.5 637.833,80.5 637.5,80.5C 632.702,77.5764 628.369,78.2431 624.5,82.5C 622.566,83.1103 620.899,84.1103 619.5,85.5C 619.167,85.5 618.833,85.5 618.5,85.5C 618.281,84.325 618.614,83.325 619.5,82.5C 622.952,81.6083 625.952,79.9416 628.5,77.5C 631.5,76.1667 634.5,76.1667 637.5,77.5C 638.612,78.2652 639.279,79.2652 639.5,80.5 Z"/></g>
<g><path style="opacity:1" fill="#c79c5d" d="M 503.5,68.5 C 503.601,74.7659 501.601,80.0992 497.5,84.5C 498.987,78.8802 500.987,73.5468 503.5,68.5 Z"/></g>
<g><path style="opacity:1" fill="#c19450" d="M 637.5,80.5 C 632.921,80.1532 628.588,80.8198 624.5,82.5C 628.369,78.2431 632.702,77.5764 637.5,80.5 Z"/></g>
<g><path style="opacity:1" fill="#f7e5ca" d="M 398.5,72.5 C 397.89,73.391 397.557,74.391 397.5,75.5C 396.844,76.6216 396.511,77.9549 396.5,79.5C 397.094,83.6128 398.094,87.6128 399.5,91.5C 397.919,89.3263 396.419,86.9929 395,84.5C 394.333,81.5 394.333,78.5 395,75.5C 395.759,73.9371 396.926,72.9371 398.5,72.5 Z"/></g>
<g><path style="opacity:1" fill="#c79c5e" d="M 638.5,80.5 C 638.833,80.5 639.167,80.5 639.5,80.5C 639.833,81.5 640.5,82.1667 641.5,82.5C 644.18,87.0873 643.847,91.4206 640.5,95.5C 640.572,92.8067 640.905,90.1401 641.5,87.5C 640.943,84.954 639.943,82.6207 638.5,80.5 Z"/></g>
<g><path style="opacity:1" fill="#faeedc" d="M 537.5,68.5 C 539.724,74.3117 541.724,80.3117 543.5,86.5C 544.484,89.4281 544.817,92.4281 544.5,95.5C 543.833,95.5 543.5,95.1667 543.5,94.5C 543.59,91.8478 542.924,89.5145 541.5,87.5C 540.985,85.1055 540.319,82.7722 539.5,80.5C 538.833,76.5 538.167,72.5 537.5,68.5 Z"/></g>
<g><path style="opacity:1" fill="#c59a59" d="M 618.5,85.5 C 618.833,85.5 619.167,85.5 619.5,85.5C 617.177,89.324 613.844,91.6573 609.5,92.5C 612.642,90.4195 615.642,88.0862 618.5,85.5 Z"/></g>
<g><path style="opacity:1" fill="#cca66f" d="M 541.5,87.5 C 542.924,89.5145 543.59,91.8478 543.5,94.5C 542.076,92.4855 541.41,90.1522 541.5,87.5 Z"/></g>
<g><path style="opacity:1" fill="#c59958" d="M 609.5,92.5 C 606.335,96.3172 602.335,98.9839 597.5,100.5C 601.223,97.4485 605.223,94.7819 609.5,92.5 Z"/></g>
<g><path style="opacity:1" fill="#f6e5cc" d="M 399.5,92.5 C 401.204,95.9385 402.538,99.6052 403.5,103.5C 402.85,103.196 402.183,102.863 401.5,102.5C 400.402,99.2473 399.736,95.9139 399.5,92.5 Z"/></g>
<g><path style="opacity:1" fill="#f9ebd6" d="M 641.5,82.5 C 642.496,82.4142 643.329,82.7476 644,83.5C 644.667,86.8333 644.667,90.1667 644,93.5C 641.48,99.9348 638.814,106.268 636,112.5C 635.329,113.252 634.496,113.586 633.5,113.5C 635.833,107.5 638.167,101.5 640.5,95.5C 643.847,91.4206 644.18,87.0873 641.5,82.5 Z"/></g>
<g><path style="opacity:1" fill="#c69b5c" d="M 492.5,98.5 C 491.269,102.734 488.602,105.734 484.5,107.5C 487.195,104.474 489.862,101.474 492.5,98.5 Z"/></g>
<g><path style="opacity:1" fill="#faeedb" d="M 551.5,108.5 C 552.873,108.343 554.207,108.51 555.5,109C 556.551,110.385 557.884,111.385 559.5,112C 564.823,112.499 570.156,112.666 575.5,112.5C 574.737,113.268 573.737,113.768 572.5,114C 568.179,114.499 563.846,114.666 559.5,114.5C 556.476,112.987 553.809,110.987 551.5,108.5 Z"/></g>
<g><path style="opacity:1" fill="#c49753" d="M 590.5,105.5 C 590.5,106.5 590.5,107.5 590.5,108.5C 583.159,111.948 575.493,114.614 567.5,116.5C 564.473,116.713 561.807,116.047 559.5,114.5C 563.846,114.666 568.179,114.499 572.5,114C 573.737,113.768 574.737,113.268 575.5,112.5C 580.912,110.96 585.912,108.626 590.5,105.5 Z"/></g>
<g><path style="opacity:1" fill="#c69855" d="M 484.5,107.5 C 482.859,109.258 480.859,110.758 478.5,112C 473.833,112.667 469.167,112.667 464.5,112C 463.944,111.617 463.611,111.117 463.5,110.5C 470.791,111.15 477.791,110.15 484.5,107.5 Z"/></g>
<g><path style="opacity:1" fill="#f8ebd8" d="M 407.5,117.5 C 410.072,123.216 412.072,129.216 413.5,135.5C 413.5,137.5 413.5,139.5 413.5,141.5C 412.59,139.981 411.757,138.315 411,136.5C 410.117,130.116 408.95,123.782 407.5,117.5 Z"/></g>
<g><path style="opacity:1" fill="#faecd8" d="M 627.5,128.5 C 627.23,133.588 625.73,138.254 623,142.5C 621.48,150.742 622.647,158.409 626.5,165.5C 624.806,164.473 623.473,163.139 622.5,161.5C 619.542,151.951 620.209,142.618 624.5,133.5C 625.687,131.928 626.687,130.261 627.5,128.5 Z"/></g>
<g><path style="opacity:1" fill="#c59856" d="M 413.5,135.5 C 414.451,136.919 414.784,138.585 414.5,140.5C 420.272,140.59 425.938,141.423 431.5,143C 438.923,145.418 446.257,148.085 453.5,151C 455.319,151.74 456.652,152.907 457.5,154.5C 449.929,151.547 442.262,148.881 434.5,146.5C 432.723,145.4 430.723,144.566 428.5,144C 423.416,143.574 418.416,142.74 413.5,141.5C 413.5,139.5 413.5,137.5 413.5,135.5 Z"/></g>
<g><path style="opacity:1" fill="#f9ebd7" d="M 413.5,141.5 C 418.416,142.74 423.416,143.574 428.5,144C 430.723,144.566 432.723,145.4 434.5,146.5C 428.611,145.209 422.611,144.376 416.5,144C 415.058,143.623 414.058,142.79 413.5,141.5 Z"/></g>
<g><path style="opacity:1" fill="#f7e5c9" d="M 525.5,147.5 C 526.167,148.167 526.833,148.833 527.5,149.5C 523.192,148.983 518.859,148.649 514.5,148.5C 507.149,149.038 499.815,149.704 492.5,150.5C 495.322,149.493 498.322,148.66 501.5,148C 509.493,147.5 517.493,147.334 525.5,147.5 Z"/></g>
<g><path style="opacity:1" fill="#d0aa70" d="M 525.5,147.5 C 527.898,147.259 529.898,147.926 531.5,149.5C 530.167,149.5 528.833,149.5 527.5,149.5C 526.833,148.833 526.167,148.167 525.5,147.5 Z"/></g>
<g><path style="opacity:1" fill="#c59958" d="M 533.5,149.5 C 538.753,149.817 543.753,150.983 548.5,153C 549.381,153.708 550.047,154.542 550.5,155.5C 544.748,153.473 539.081,151.473 533.5,149.5 Z"/></g>
<g><path style="opacity:1" fill="#c29450" d="M 624.5,133.5 C 620.209,142.618 619.542,151.951 622.5,161.5C 620.907,160.652 619.74,159.319 619,157.5C 618.333,153.167 618.333,148.833 619,144.5C 620.364,140.437 622.198,136.771 624.5,133.5 Z"/></g>
<g><path style="opacity:1" fill="#fcf1e1" d="M 629.5,167.5 C 632.582,168.017 635.582,168.85 638.5,170C 659.167,170.333 679.833,170.667 700.5,171C 702.431,171.902 704.097,173.069 705.5,174.5C 703.821,174.108 702.154,173.608 700.5,173C 680.169,172.5 659.836,172.333 639.5,172.5C 636.117,170.831 632.784,169.164 629.5,167.5 Z"/></g>
<g><path style="opacity:1" fill="#bcbcbc" d="M 378.5,173.5 C 429.747,169.871 468.58,189.871 495,233.5C 501.944,245.936 506.111,259.269 507.5,273.5C 555.392,274.7 587.892,297.7 605,342.5C 615.836,384.643 605.336,420.476 573.5,450C 558.075,462.54 540.409,469.873 520.5,472C 416.833,472.667 313.167,472.667 209.5,472C 167.455,464.287 137.289,441.121 119,402.5C 98.7808,345.864 111.947,298.697 158.5,261C 186.456,241.575 217.123,235.409 250.5,242.5C 245.241,259.083 242.741,276.083 243,293.5C 248.398,306.189 257.232,309.355 269.5,303C 272.543,300.407 274.71,297.24 276,293.5C 277.704,236.894 304.871,198.394 357.5,178C 364.481,175.711 371.481,174.211 378.5,173.5 Z"/></g>
<g><path style="opacity:1" fill="#c59a5a" d="M 639.5,172.5 C 659.836,172.333 680.169,172.5 700.5,173C 702.154,173.608 703.821,174.108 705.5,174.5C 709.165,178.081 710.332,182.415 709,187.5C 708.292,188.381 707.458,189.047 706.5,189.5C 707.329,186.531 707.495,183.531 707,180.5C 706.602,177.768 705.102,175.935 702.5,175C 682.5,174.667 662.5,174.333 642.5,174C 641.263,173.768 640.263,173.268 639.5,172.5 Z"/></g>
<g><path style="opacity:1" fill="#f6e5cb" d="M 590.5,196.5 C 593.134,200.395 594.801,204.728 595.5,209.5C 592.997,205.493 591.33,201.159 590.5,196.5 Z"/></g>
<g><path style="opacity:1" fill="#efd7b1" d="M 656.5,221.5 C 655.415,223.587 653.749,224.92 651.5,225.5C 652.585,223.413 654.251,222.08 656.5,221.5 Z"/></g>
<g><path style="opacity:1" fill="#f5e6ce" d="M 595.5,209.5 C 596.869,212.298 597.869,215.298 598.5,218.5C 600.177,231.306 599.51,243.973 596.5,256.5C 595.833,257.167 595.167,257.833 594.5,258.5C 598.056,242.253 598.39,225.919 595.5,209.5 Z"/></g>
<g><path style="opacity:1" fill="#c1924c" d="M 598.5,218.5 C 599.825,222.276 600.491,226.443 600.5,231C 600.676,239.277 599.843,247.443 598,255.5C 597.617,256.056 597.117,256.389 596.5,256.5C 599.51,243.973 600.177,231.306 598.5,218.5 Z"/></g>
<g><path style="opacity:1" fill="#f9ebd7" d="M 651.5,225.5 C 650.395,227.713 650.395,229.88 651.5,232C 650.552,232.483 649.552,232.649 648.5,232.5C 648.173,234.488 647.84,236.488 647.5,238.5C 648.564,242.949 649.897,247.282 651.5,251.5C 650.833,251.167 650.167,250.833 649.5,250.5C 647.743,246.818 646.41,242.985 645.5,239C 646,235.335 647,231.835 648.5,228.5C 649.272,227.306 650.272,226.306 651.5,225.5 Z"/></g>
<g><path style="opacity:1" fill="#c2944f" d="M 648.5,228.5 C 647,231.835 646,235.335 645.5,239C 646.41,242.985 647.743,246.818 649.5,250.5C 645.853,247.692 644.187,243.859 644.5,239C 644.062,234.727 645.395,231.227 648.5,228.5 Z"/></g>
<g><path style="opacity:1" fill="#f9e9d1" d="M 653.5,253.5 C 657.127,255.794 660.461,258.46 663.5,261.5C 659.296,259.967 655.963,257.3 653.5,253.5 Z"/></g>
<g><path style="opacity:1" fill="#cca670" d="M 593.5,264.5 C 593.5,266.167 593.5,267.833 593.5,269.5C 590.952,267.962 590.952,266.296 593.5,264.5 Z"/></g>
<g><path style="opacity:1" fill="#c9a065" d="M 593.5,269.5 C 595.749,270.08 597.415,271.413 598.5,273.5C 596.251,272.92 594.585,271.587 593.5,269.5 Z"/></g>
<g><path style="opacity:1" fill="#fae9d0" d="M 601.5,277.5 C 605.566,280.563 608.899,284.229 611.5,288.5C 607.434,285.437 604.101,281.771 601.5,277.5 Z"/></g>
<g><path style="opacity:1" fill="#c49754" d="M 685.5,278.5 C 689.736,280.445 693.403,283.112 696.5,286.5C 693.726,285.277 691.059,283.777 688.5,282C 686.937,281.241 685.937,280.074 685.5,278.5 Z"/></g>
<g><path style="opacity:1" fill="#c0914a" d="M 696.5,286.5 C 704.549,289.732 706.549,295.066 702.5,302.5C 702.665,299.15 702.498,295.817 702,292.5C 699.91,290.584 698.077,288.584 696.5,286.5 Z"/></g>
<g><path style="opacity:1" fill="#c79a57" d="M 700.5,304.5 C 697.964,306.996 694.797,307.996 691,307.5C 676.205,305.981 661.371,304.981 646.5,304.5C 640.643,303.281 634.643,303.281 628.5,304.5C 628.611,303.883 628.944,303.383 629.5,303C 634.833,302.833 640.167,302.667 645.5,302.5C 661.325,303.646 677.159,304.646 693,305.5C 695.434,304.678 697.934,304.344 700.5,304.5 Z"/></g>
<g><path style="opacity:1" fill="#ebd4b1" d="M 646.5,304.5 C 639.874,304.104 633.374,304.77 627,306.5C 625.93,306.472 625.097,306.139 624.5,305.5C 626.099,305.768 627.432,305.434 628.5,304.5C 634.643,303.281 640.643,303.281 646.5,304.5 Z"/></g>
<g><path style="opacity:1" fill="#05687d" d="M 254.5,574.5 C 256.935,583.008 258.602,591.675 259.5,600.5C 258.641,607.608 256.974,614.608 254.5,621.5C 242.35,639.895 226.683,643.729 207.5,633C 194.506,619.527 190.34,603.694 195,585.5C 203.387,558.394 213.72,532.061 226,506.5C 236.395,528.867 245.895,551.534 254.5,574.5 Z"/></g>
<g><path style="opacity:1" fill="#05687d" d="M 470.5,557.5 C 475.679,546.463 480.346,535.129 484.5,523.5C 487.303,517.894 490.136,512.227 493,506.5C 506.807,534.781 517.807,564.114 526,594.5C 527.176,609.651 522.343,622.485 511.5,633C 491.135,644.746 475.302,640.246 464,619.5C 459.335,609.195 458.335,598.528 461,587.5C 464.071,577.456 467.237,567.456 470.5,557.5 Z"/></g>
<g><path style="opacity:1" fill="#04687c" d="M 330.5,619.5 C 326.028,608.08 325.361,596.413 328.5,584.5C 336.679,557.961 347.013,532.294 359.5,507.5C 372.245,532.896 382.745,559.229 391,586.5C 395.513,605.302 390.679,621.136 376.5,634C 356.515,643.95 341.182,639.116 330.5,619.5 Z"/></g>
<g><path style="opacity:1" fill="#dcf2f5" d="M 484.5,523.5 C 480.346,535.129 475.679,546.463 470.5,557.5C 471.989,550.269 474.323,543.269 477.5,536.5C 479.102,531.636 481.436,527.302 484.5,523.5 Z"/></g>
<g><path style="opacity:1" fill="#dbf1f5" d="M 254.5,574.5 C 261.147,588.505 262.314,603.172 258,618.5C 256.961,619.71 255.794,620.71 254.5,621.5C 256.974,614.608 258.641,607.608 259.5,600.5C 258.602,591.675 256.935,583.008 254.5,574.5 Z"/></g>
<g><path style="opacity:1" fill="#d9f1f5" d="M 328.5,584.5 C 325.361,596.413 326.028,608.08 330.5,619.5C 328.926,619.063 327.759,618.063 327,616.5C 325.154,611.235 324.32,605.735 324.5,600C 324.424,594.337 325.757,589.17 328.5,584.5 Z"/></g>
</svg>
